#!OML:ASF F:\VICON\USERDATA\INSTALL\rory3\rory3.ASF
:FULLY-SPECIFIED
:DEGREES
26
root 0.3081769789619333 17.958228816302526 -8.065972934091445 -0.8372620608651435 -4.043010781453733 1.5430666110958353
lfemur 11.824279579226218 -3.0996293327591147 -23.660234025806155
ltibia 34.59252924994655
lfoot 5.241019050811455 -8.0061195476545
ltoes -8.073120556659493
rfemur -23.469079770920253 1.778381315236004 23.893192628783765
rtibia 23.34905998047087
rfoot -18.984701151476628 -12.36768252495445
rtoes -4.568489265712762
lowerback 10.969209422503123 -1.511959802078291 -4.507432675897228
upperback 0.12321145567462108 -2.165798403696234 1.7479676823470258
thorax -6.197235742850421 -0.907036389503896 4.0108383552622495
lowerneck -17.122359028967676 -3.5033885438857326 -1.4469410980927404
upperneck 20.548480048089765 -4.775894008751773 1.090858306421676
head 9.167007914525433 -2.2447407738994762 0.008760339664748457
lclavicle -2.7003079518498495e-15 -2.1517147062691636e-15
lhumerus -26.23083096883385 0.6847882110291388 80.80864719409747
lradius 24.27298429748423
lwrist 10.543835054526287
lhand -29.90032363315405 19.8575566964142
lfingers 7.125020000000001
lthumb -3.232881305555241 50.16592133416445
rclavicle -2.7003079517481425e-15 -2.151714706199324e-15
rhumerus -34.08449108153445 -24.88897216974232 -73.71370882209975
rradius 23.67689769451837
rwrist 6.168996347960498
rhand -18.272464058121024 22.9212696869653
rfingers 7.125020000000001
rthumb 7.767446181042515 -5.779928403245254
27
root 0.312357562303073 17.974579888796764 -7.359562922899492 -0.7089499499225798 -4.126563284527616 1.1850033526362966
lfemur 11.01826500189852 -2.9711025940919518 -23.028135098899916
ltibia 37.54750628359378
lfoot 4.762353301182936 -7.310935129067969
ltoes -6.846584191024602
rfemur -23.259109094994052 1.8555284146426998 24.160921318337685
rtibia 23.646721809523513
rfoot -19.16413809679723 -12.843172199544195
rtoes -6.600794544044778
lowerback 10.937300130944351 -1.5375301093414186 -4.0864952342854215
upperback 0.06522008571561722 -2.0284996906529935 1.8411947463804608
thorax -6.262634760157125 -0.8836903470089197 3.96753045667694
lowerneck -16.912449906174267 -3.595139047845989 -1.5515383639923332
upperneck 20.336711452914404 -4.910248329216503 1.1990013296524833
head 9.01444592546911 -2.2925805765064484 0.06268598192587069
lclavicle -2.700307951845038e-15 -2.1517147062666475e-15
lhumerus -27.19419083642133 1.234525224743193 80.99049406793687
lradius 23.574438693846812
lwrist 11.014589231642528
lhand -29.70919088507292 19.94050394678424
lfingers 7.125020000000001
lthumb -2.906822291408812 50.464101504061595
rclavicle -2.7003079517541946e-15 -2.1517147062044213e-15
rhumerus -34.0521357696619 -24.715252265183523 -73.41162812987507
rradius 24.050224858116415
rwrist 6.351897196754397
rhand -18.257541516294026 23.04366776069757
rfingers 7.125020000000001
rthumb 7.750016820001086 -5.477632041660437
28
root 0.31204200905414364 17.993168016958084 -7.035490870466695 -0.6220973372033582 -4.309150694696644 0.9120495664866803
lfemur 10.237488646897575 -2.729436610016287 -22.26871039572966
ltibia 40.438542119688755
lfoot 3.7411244033850677 -6.362622276659193
ltoes -5.176402964899125
rfemur -22.942477363324134 2.000655327631636 24.514667541427336
rtibia 23.74689377361041
rfoot -19.330157787693572 -12.376090835634344
rtoes -7.710531362443856
lowerback 10.918781171889846 -1.5249822649220546 -3.8371508979057523
upperback 0.03830649527619345 -2.041718161007252 1.8859389873610521
thorax -6.271640521643156 -0.892427366429503 3.9218596689391316
lowerneck -16.68419106150844 -3.6313786150938183 -1.4795257154571007
upperneck 20.270560276908423 -4.996088689921109 1.2307711463781923
head 8.923399552352738 -2.318596716474933 0.06351612809475071
lclavicle -2.7003079518650966e-15 -2.15171470628052e-15
lhumerus -27.648046670864073 1.7858596742199486 81.32127608985999
lradius 23.456878564845827
lwrist 11.257648344684245
lhand -29.53603054093929 19.728390933735742
lfingers 7.125020000000001
lthumb -2.6579810809745403 50.23495530314203
rclavicle -2.7003079517296172e-15 -2.151714706187888e-15
rhumerus -33.47824070405896 -24.23302557685118 -73.36782846055704
rradius 24.443063280600512
rwrist 6.24632652922463
rhand -18.234217511382862 23.362004502293093
rfingers 7.125020000000001
rthumb 7.787600751412663 -5.013947299469262
29
root 0.32107322012572 18.01606543611754 -6.525960098554826 -0.5775296282332416 -4.571324912707685 0.5467024421986615
lfemur 9.087091135808365 -2.3660381758305906 -21.402955063367216
ltibia 43.35829813400494
lfoot 2.9352585343290594 -5.347625193158773
ltoes -4.627492576084501
rfemur -23.08184281082098 2.339237623133732 24.452544128198586
rtibia 23.138601355171566
rfoot -19.063589472695924 -11.582154097491355
rtoes -9.423234927364291
lowerback 10.906114888281921 -1.471868596549103 -3.5106812876304896
upperback 0.02902344018109604 -2.0584063271898088 1.8506372986631225
thorax -6.279574248189393 -0.9067405539454136 3.9493944746233076
lowerneck -16.668320496707974 -3.6746545520683385 -1.4432835437889455
upperneck 20.413561205354373 -5.090528336290094 1.2841905381703922
head 8.932686451672287 -2.352226798244958 0.054177143856025484
lclavicle -2.7003079518560204e-15 -2.1517147062749487e-15
lhumerus -28.412285088950625 2.4724834682884556 81.59097599758199
lradius 23.01448751667496
lwrist 11.34956732551788
lhand -29.431924395182698 19.749422937151174
lfingers 7.125020000000001
lthumb -2.5532056251181787 50.19947023252915
rclavicle -2.70030795171981e-15 -2.151714706181692e-15
rhumerus -32.92027280801447 -23.564729918110054 -73.33348389033101
rradius 24.816363341136935
rwrist 5.441705900419595
rhand -18.272678777526643 23.551217963726955
rfingers 7.125020000000001
rthumb 7.620721744269113 -4.739274336551141
30
root 0.33155009166265614 18.021696532706223 -6.551465281380736 -0.8435062966785747 -5.139372874294562 0.44586080701039643
lfemur 8.998770385155705 -2.0282570619537523 -20.708670217607178
ltibia 45.521425245308706
lfoot 2.3821134422038748 -4.552159587011341
ltoes -3.7673967077087163
rfemur -23.214258906981726 2.6237087616459664 24.62234581904524
rtibia 22.635781985732187
rfoot -18.39805339505657 -10.940014440977082
rtoes -10.840384898753564
lowerback 10.938403598536015 -1.247204811137162 -3.1621204112029937
upperback 0.05599274863575354 -1.7788163471637513 1.922858285702853
thorax -6.252531392265771 -0.7243216689484785 4.088106632525136
lowerneck -16.664820805760872 -3.68096428163731 -1.4453268916926474
upperneck 20.65100253247922 -5.154019509642693 1.2822604722879265
head 9.09597808664208 -2.3655470210648906 0.02146161033546598
lclavicle -2.7003079518475228e-15 -2.1517147062695607e-15
lhumerus -29.02532443633131 3.0548737340037224 81.84337711853576
lradius 22.66046806876323
lwrist 11.51465625323433
lhand -29.635812867051076 19.38026694923444
lfingers 7.125020000000001
lthumb -2.8553555635821173 49.68668905242391
rclavicle -2.7003079517368057e-15 -2.1517147061934925e-15
rhumerus -32.64340058293386 -23.034998878118696 -73.21747897490329
rradius 25.23216836356681
rwrist 4.484216041102418
rhand -18.457439057536934 23.599650259082328
rfingers 7.125020000000001
rthumb 7.497219698089908 -4.59025600984759
31
root 0.34564417803357966 18.035028563693416 -5.926147733425811 -0.876617356392583 -5.486067009278615 0.06362071703959282
lfemur 8.485225456494216 -1.820383571568835 -20.12499371718663
ltibia 47.24860440005361
lfoot 1.9620485637606349 -4.041994935696766
ltoes -6.377754790980351
rfemur -23.403278213298385 2.814184964189368 24.952054306410524
rtibia 21.460798901265537
rfoot -17.32830904535956 -10.69223264396524
rtoes -11.748238426762672
lowerback 10.944213121832394 -1.0423552213805443 -2.6049646384422576
upperback 0.05638868225692026 -1.4527408303327312 2.0470204130067557
thorax -6.2408655854730934 -0.5797192013963717 3.878070679064933
lowerneck -16.62898629504169 -3.687919825419003 -1.5046820162004808
upperneck 20.800534165716535 -5.1922673816101 1.3713558741482674
head 9.20440954825502 -2.3750263447530005 0.03187733262733522
lclavicle -2.700307951849452e-15 -2.1517147062707898e-15
lhumerus -30.068750545285095 3.7416948243733588 81.97619646579571
lradius 21.921906557560543
lwrist 11.432441644619157
lhand -29.613786514671737 19.202174491667318
lfingers 7.125020000000001
lthumb -2.8221447690489114 49.63256501711956
rclavicle -2.700307951737341e-15 -2.15171470619379e-15
rhumerus -32.50835244001082 -22.637206420547972 -73.07728327930097
rradius 25.501260625861114
rwrist 3.898561898301664
rhand -18.464650611202092 23.807958076340924
rfingers 7.125020000000001
rthumb 7.37854486432699 -4.7474853130974495
32
root 0.3724809034444928 18.049797107799897 -4.373076614401077 -0.9148267584076313 -5.628662690088638 -0.3540246424444753
lfemur 7.384863492813304 -1.6229226275009536 -19.19148002347939
ltibia 48.77178924410459
lfoot 1.4345063636080093 -3.7501326160374706
ltoes -8.045374250842906
rfemur -23.508290261315345 2.8922394942053065 25.24720894646218
rtibia 19.72918400921245
rfoot -15.393198862547859 -10.4710206347182
rtoes -11.299754664342244
lowerback 10.962221421915098 -0.9097235287148564 -2.1416018532192274
upperback 0.027710701167346807 -1.1554471828413504 2.194701808180165
thorax -6.216782626854062 -0.4401410526081859 3.769896790294126
lowerneck -16.557231002801235 -3.689854860351475 -1.60720961098471
upperneck 20.88668770883051 -5.221027548952617 1.3912938611898473
head 9.280448167159268 -2.3830831629144917 0.01371723937729652
lclavicle -2.700307951837242e-15 -2.1517147062627126e-15
lhumerus -31.039621506742222 4.954520658297152 82.25403967020954
lradius 21.096082675144018
lwrist 11.416855896831237
lhand -29.465343323708048 19.127090943410565
lfingers 7.125020000000001
lthumb -2.6095632286572346 49.62922245354998
rclavicle -2.7003079517545165e-15 -2.151714706205808e-15
rhumerus -32.50371109704453 -22.32680065973276 -73.03378193885776
rradius 25.824389540669795
rwrist 4.263215319501019
rhand -18.50248269040977 23.576551067601372
rfingers 7.125020000000001
rthumb 7.495336660065824 -5.243985519230925
33
root 0.38405680267739806 18.011429003730292 -4.310263737419332 -1.7308880560186353 -6.184597740942703 0.14212875939345793
lfemur 6.541744565665576 -1.4279385832952816 -19.340565974945523
ltibia 50.33606603791753
lfoot 0.7155281145165393 -3.518068665523825
ltoes -9.412398223196384
rfemur -23.646079656962954 2.8452676404210155 25.14253149801756
rtibia 19.34115076422829
rfoot -12.477726418942606 -9.92260163006168
rtoes -9.8631386679587
lowerback 11.105363585178704 -0.7288400238901762 -2.4014796683162714
upperback 0.05195154783881198 -1.042892725364762 2.094425109540113
thorax -6.170925104349356 -0.3777436846631058 3.6709602304750852
lowerneck -16.47032957268339 -3.6900188442127253 -1.544977968688175
upperneck 20.799948327622946 -5.2402566403898465 1.5381142786130741
head 9.283620371743948 -2.378420206938279 0.051945747766360684
lclavicle -2.7003079518453203e-15 -2.151714706268223e-15
lhumerus -32.01667454462131 5.955237086048825 82.39165097042547
lradius 20.627207743699607
lwrist 11.242565955305228
lhand -29.692203246787916 17.747779975597727
lfingers 7.125020000000001
lthumb -3.019077909304323 47.845834346994515
rclavicle -2.7003079517617972e-15 -2.1517147062108198e-15
rhumerus -32.32654317594199 -22.040162353277697 -73.0986233114578
rradius 26.169252683114223
rwrist 4.765479103866161
rhand -18.452902484760724 23.339197343677636
rfingers 7.125020000000001
rthumb 7.533433846010309 -5.775050414637265
